<?xml version="1.0" encoding="UTF-8" standalone="no"?><!DOCTYPE svg PUBLIC "-//W3C//DTD SVG 1.1//EN" "http://www.w3.org/Graphics/SVG/1.1/DTD/svg11.dtd"><svg width="100%" height="100%" viewBox="0 0 750 750" version="1.1" xmlns="http://www.w3.org/2000/svg" xmlns:xlink="http://www.w3.org/1999/xlink" xml:space="preserve" xmlns:serif="http://www.serif.com/" style="fill-rule:evenodd;clip-rule:evenodd;stroke-linejoin:round;stroke-miterlimit:2;"><path d="M474.486,23.75c-319.706,-0 -457.403,178.222 -457.403,351.25c0,173.028 137.697,351.25 457.403,351.25c-90.106,-35.842 -269.497,-106.368 -283.541,-351.25c-12.427,-216.688 159.045,-315.408 283.541,-351.25Z"/><path d="M680.833,219.128l0,82.355c0,2.99 -2.427,5.417 -5.417,5.417l-343.396,0c-2.99,0 -5.417,-2.427 -5.417,-5.417l0,-82.355c0,-2.99 2.427,-5.417 5.417,-5.417l343.396,0c2.99,0 5.417,2.427 5.417,5.417Z"/><path d="M680.833,360.077l0,74.022c0,2.99 -2.427,5.417 -5.417,5.417l-343.396,0c-2.99,0 -5.417,-2.427 -5.417,-5.417l0,-74.022c0,-2.99 2.427,-5.417 5.417,-5.417l343.396,0c2.99,0 5.417,2.427 5.417,5.417Z"/><path d="M680.833,484.358l0,82.355c0,2.99 -2.427,5.417 -5.417,5.417l-343.396,0c-2.99,0 -5.417,-2.427 -5.417,-5.417l0,-82.355c0,-2.99 2.427,-5.417 5.417,-5.417l343.396,0c2.99,0 5.417,2.427 5.417,5.417Z"/></svg>